<?xml version="1.0" encoding="UTF-8"?><svg id="Layer_1" xmlns="http://www.w3.org/2000/svg" xmlns:xlink="http://www.w3.org/1999/xlink" viewBox="0 0 608.67 135.98"><defs><style>
.cls-1{clip-path:url(#clippath);}
.cls-2,.cls-3{fill:none;}
.cls-2,.cls-4,.cls-5{stroke-width:0px;}
.cls-3{stroke:#000;stroke-linecap:round;stroke-linejoin:round;stroke-width:5.4px;}
.cls-5{fill:#fff;}
.cls-4{fill:#fff;}
</style>
<clipPath id="clippath"><circle class="cls-2" cx="67.11" cy="67.11" r="67.11"/></clipPath></defs>
<path class="cls-4" d="m223.49,33.5c-6.2-3.79-13.21-6.09-20.79-6.09-22.4,0-41.01,19.19-41.01,40.21s18.61,40.67,41.01,40.67c7.58,0,14.59-2.41,20.79-6.09v6.2c-6.32,3.1-13.33,5.05-20.79,5.05-25.96,0-46.87-20.45-46.87-45.72s20.91-45.49,46.87-45.49c7.47,0,14.36,1.95,20.79,5.06v6.2Z"/>
<path class="cls-4" d="m270.01,103.81c-4.37,5.05-11.03,9.08-18.84,9.08-12.87,0-22.86-9.77-22.86-21.71s9.99-21.71,22.86-21.71c8.16,0,14.59,3.45,18.84,8.16v-9.19c0-16.08-7.12-20.56-16.2-20.56-4.48,0-7.24.34-15.74,1.84l-.8-4.71c8.27-1.61,11.37-1.95,16.54-1.95,15.05,0,21.6,8.85,21.6,23.21v44.46h-5.4v-6.89Zm.23-12.64c0-9.19-7.58-16.77-18.84-16.77-10.45,0-17.35,7.58-17.35,16.77s6.89,16.77,17.35,16.77,18.84-7.47,18.84-16.77Z"/>
<path class="cls-4" d="m290.45,110.7h-5.4V44.76h5.4v9.08c4.14-5.97,12.29-10.68,21.6-10.68,15.05,0,23.78,9.42,23.78,24.81v42.74h-5.4v-41.24c0-16.43-9.76-21.37-19.76-21.37-8.39,0-20.22,6.43-20.22,20.22v42.39Z"/>
<path class="cls-4" d="m394.42,109.55c-5.97,2.41-11.83,3.1-15.85,3.1-19.99,0-35.96-16.2-35.96-34.92s15.97-34.92,35.96-34.92c3.79,0,9.54.8,15.85,3.79v5.63h-.23c-6.43-3.68-12.64-4.48-15.62-4.48-16.66,0-30.21,13.79-30.21,29.98s13.56,29.98,30.21,29.98c3.22,0,7.58-.23,15.62-3.68h.23v5.51Z"/>
<path class="cls-4" d="m436.47,114.03c-20.91,0-35.96-16.89-35.96-36.3s14.02-36.3,34.81-36.3c18.15,0,34.12,15.62,34.12,34.01v.57h-63.19v1.61c0,17.81,14.02,31.48,30.21,31.48,10.68,0,20.1-5.17,27.34-12.41l3.45,4.14c-6.2,7.24-17.46,13.21-30.79,13.21Zm-29.64-42.85h56.52c-2.18-13.67-14.59-24.81-28.03-24.81s-25.73,10.57-28.49,24.81Z"/>
<path class="cls-4" d="m481.38,110.7h-5.4V44.76h5.4v12.52c2.99-5.17,9.42-12.52,18.15-12.52h2.18v6.09c-.46-.23-1.38-.34-1.84-.34-11.37,0-18.5,13.21-18.5,22.29v37.91Z"/>
<path class="cls-4" d="m515.5,33.04h-5.86v-11.95h5.86v11.95Zm-.23,77.66h-5.4V44.76h5.4v65.94Z"/>
<path class="cls-4" d="m535.72,49.58v61.12h-5.4v-61.12h-9.76v-4.83h9.76v-4.94c0-16.08,9.19-18.73,18.04-18.73v4.94c-5.51,0-12.64,1.38-12.64,13.9v4.83h10.8v4.83h-10.8Z"/>
<path class="cls-4" d="m573.63,135.98h-5.28l9.08-23.78-30.44-67.44h5.97l27,60.89,23.21-60.89h5.51l-35.04,91.22Z"/><circle class="cls-5" cx="67.11" cy="67.11" r="67.11"/>
<g class="cls-1">
<path class="cls-3" d="m20.32,94.6c1.56-7.52,6.52-49.22,18.46-43.11,4.17,3.21,4.63,9.64,6.29,14.49,2.08,7.34,7.02,14.41,14.57,16.41,16.64,3.99,28.88-11.11,41.03-20.07,10.59-8.38,23.32-13.3,36.61-15.34"/>
</g></svg>