<?xml version="1.0" encoding="UTF-8"?><svg id="Layer_1" xmlns="http://www.w3.org/2000/svg" xmlns:xlink="http://www.w3.org/1999/xlink" viewBox="0 0 627.39 135.98"><defs><style>.cls-1{clip-path:url(#clippath);}.cls-2,.cls-3{fill:none;}.cls-2,.cls-4,.cls-5{stroke-width:0px;}.cls-6{clip-path:url(#clippath-1);}.cls-3{stroke:#000;stroke-linecap:round;stroke-linejoin:round;stroke-width:9.88px;}.cls-5{fill:#fff;} .cls-4{fill:#fff;}</style><clipPath id="clippath"><circle class="cls-2" cx="67.11" cy="67.11" r="67.11"/></clipPath><clipPath id="clippath-1"><circle class="cls-2" cx="67.11" cy="67.11" r="67.11"/></clipPath></defs><circle class="cls-5" cx="67.11" cy="67.11" r="67.11"/><g class="cls-1"><path class="cls-3" d="m20.32,94.6c.01-.1.03-.21.04-.31.04-.3.08-.59.13-.88.07-.47.14-.93.21-1.4.1-.62.19-1.24.29-1.86.12-.75.24-1.5.37-2.25.15-.86.3-1.73.45-2.59.17-.96.35-1.91.53-2.87.19-1.03.39-2.06.6-3.08.22-1.08.44-2.16.67-3.24s.49-2.23.74-3.33.53-2.25.81-3.37.57-2.23.88-3.35.61-2.18.94-3.26.65-2.09,1.01-3.12c.34-.98.69-1.95,1.07-2.92.35-.89.72-1.78,1.13-2.65.37-.79.76-1.57,1.18-2.33,1.01-1.79,2.4-4.02,4.48-4.67.86-.27,1.81-.22,2.65.08,2.09.76,3.15,2.85,3.72,4.86.29,1.01.47,2.05.59,3.1.73,6.22,1.25,12.47,4.17,18.14,2.3,4.46,6.03,8.34,10.75,10.06,4.15,1.51,8.79,1.27,13.02,0,9.8-2.96,17.07-10.22,24.48-16.87,11.94-10.72,25.86-18.06,42.06-19.48"/></g><path class="cls-4" d="m222.22,37.52c-5.74-3.56-12.41-5.63-19.53-5.63-20.22,0-36.65,16.89-36.65,35.73s16.43,36.19,36.65,36.19c7.12,0,13.79-2.07,19.53-5.63v10.68c-5.97,2.87-12.75,4.6-19.99,4.6-26.31,0-46.87-20.45-46.87-45.72s20.56-45.49,46.87-45.49c7.24,0,13.9,1.72,19.99,4.6v10.68Z"/><path class="cls-4" d="m268.17,104.27c-4.37,4.83-10.91,8.62-19.07,8.62-12.64,0-22.4-9.42-22.4-21.71s9.65-21.71,23.44-21.71c7.47,0,13.33,2.64,17.46,6.32v-6.32c0-14.02-6.09-18.04-15.28-18.04-4.48,0-7.7.46-15.97,1.95l-.69-8.39c8.04-1.61,11.72-1.95,17.46-1.95,16.77,0,24.36,8.85,24.36,23.21v44.46h-9.31v-6.43Zm-.46-13.33c0-7.93-6.32-14.48-15.74-14.48s-14.93,6.55-14.93,14.48,5.97,14.94,14.93,14.94,15.74-6.66,15.74-14.94Z"/><path class="cls-4" d="m296.08,110.7h-9.88V44.76h9.65v8.16c4.25-5.28,12.06-9.88,21.6-9.88,14.59,0,23.67,9.42,23.67,24.7v42.97h-9.88v-40.09c0-14.25-8.39-18.73-17.35-18.73-7.58,0-17.81,5.74-17.81,17.58v41.24Z"/><path class="cls-4" d="m400.28,109.55c-4.71,2.41-11.49,3.22-15.85,3.22-21.02,0-37.22-15.85-37.22-35.04s16.2-35.04,37.22-35.04c4.14,0,10.8.92,15.85,3.56v9.42h-.34c-5.51-3.68-11.72-4.37-15.51-4.37-15.05,0-26.77,11.83-26.77,26.42s11.72,26.42,26.77,26.42c3.91,0,9.08-.46,15.51-3.91h.34v9.31Z"/><path class="cls-4" d="m442.67,114.03c-22.06,0-37.22-16.31-37.22-36.3s14.47-36.3,35.15-36.3c19.19,0,34.81,15.51,34.81,35.04v2.07h-59.51c.46,15.74,11.49,26.88,26.77,26.88,10.57,0,18.96-4.48,25.16-10.68l6.09,6.55c-6.66,7.01-17.12,12.75-31.25,12.75Zm-25.96-43.54h47.79c-2.53-11.83-12.18-20.45-23.9-20.45s-21.37,8.27-23.9,20.45Z"/><path class="cls-4" d="m491.14,110.7h-9.88V44.76h9.65v12.98c2.76-5.17,9.42-12.98,18.38-12.98h2.18v11.26c-.57-.34-1.72-.46-2.41-.46-10.91,0-17.92,10.8-17.92,18.27v36.88Z"/><path class="cls-4" d="m528.02,34.07h-10.34v-12.98h10.34v12.98Zm-.23,76.63h-9.88V44.76h9.88v65.94Z"/><path class="cls-4" d="m551.69,53.26v57.44h-9.88v-57.44h-9.19v-8.5h9.19v-4.14c0-17.69,10.8-20.45,20.91-20.45v8.85c-5.17,0-11.03,1.26-11.03,12.18v3.56h9.54v8.5h-9.54Z"/><path class="cls-4" d="m592.47,135.98h-9.88l9.08-24.01-30.67-67.21h11.03l24.24,55.14,20.91-55.14h10.22l-34.92,91.22Z"/><circle class="cls-5" cx="67.11" cy="67.11" r="67.11"/><g class="cls-6"><path class="cls-3" d="m20.32,94.6c1.56-7.52,6.52-49.22,18.46-43.11,4.17,3.21,4.63,9.64,6.29,14.49,2.08,7.34,7.02,14.41,14.57,16.41,16.64,3.99,28.88-11.11,41.03-20.07,10.59-8.38,23.32-13.3,36.61-15.34"/></g></svg>